<svg width="14" height="13" viewBox="0 0 14 13" fill="none" xmlns="http://www.w3.org/2000/svg">
<path d="M3.46871 12.148H0.830891V4.37401H3.46871V12.148ZM2.1498 3.30801C1.31307 3.30801 0.618164 2.67101 0.618164 1.90401C0.654757 1.55662 0.831183 1.23418 1.11304 0.999555C1.3949 0.764933 1.76198 0.634949 2.14271 0.634949C2.52344 0.634949 2.89052 0.764933 3.17238 0.999555C3.45424 1.23418 3.63066 1.55662 3.66725 1.90401C3.66725 2.67101 2.98653 3.32101 2.1498 3.30801ZM13.3251 12.148H10.6873V8.36501C10.6873 7.46801 10.6731 6.31101 9.3258 6.29801C7.95016 6.29801 7.75162 7.27301 7.73744 8.30001V12.148H5.1138V4.37401H7.63816V5.42701H7.68071C8.03525 4.81601 8.88616 4.16601 10.1625 4.17901C12.8287 4.17901 13.3251 5.79101 13.3251 7.87101V12.148Z" fill="white"/>
</svg>
