<svg width="14" height="14" viewBox="0 0 14 14" fill="none" xmlns="http://www.w3.org/2000/svg">
<path d="M8.98956 5.32356C10.5366 6.88356 10.5236 9.36656 9.00256 10.9006C9.00256 10.9006 9.00256 10.9136 8.98956 10.9136L7.24756 12.6556C5.70056 14.2026 3.20456 14.2026 1.65756 12.6556C0.110564 11.1086 0.110564 8.61256 1.65756 7.06556L2.61956 6.10356C2.87956 5.84356 3.32156 6.01256 3.33456 6.37656C3.34756 6.83156 3.43856 7.29956 3.58156 7.75456C3.63356 7.91056 3.59456 8.07956 3.49056 8.18356L3.13956 8.52156C2.41156 9.24956 2.38556 10.4326 3.11356 11.1736C3.84156 11.9146 5.03756 11.9146 5.77856 11.1866L7.52056 9.44456C8.24856 8.71656 8.24856 7.52056 7.52056 6.79256C7.42956 6.70156 7.32556 6.62356 7.24756 6.57156C7.19646 6.53388 7.15466 6.485 7.12537 6.42867C7.09607 6.37233 7.08006 6.31004 7.07856 6.24656C7.06556 5.97356 7.16956 5.68756 7.37756 5.46656L7.92356 4.92056C8.06656 4.77756 8.28756 4.76456 8.45656 4.86856C8.64731 5.0042 8.82568 5.15646 8.98956 5.32356ZM12.6556 1.65756C11.1086 0.110564 8.61256 0.110564 7.06556 1.65756L5.32356 3.39956L5.31056 3.41256C3.78956 4.94656 3.76356 7.44256 5.32356 8.98956C5.48745 9.15667 5.66582 9.30893 5.85656 9.44456C6.02556 9.56156 6.24656 9.54856 6.38956 9.39256L6.93556 8.84656C7.15656 8.62556 7.24756 8.35256 7.23456 8.06656C7.23307 8.00309 7.21706 7.94079 7.18776 7.88446C7.15847 7.82813 7.11667 7.77925 7.06556 7.74156C6.98756 7.68956 6.89656 7.61156 6.79256 7.52056C6.06456 6.79256 6.06456 5.60956 6.79256 4.86856L8.53456 3.12656C9.26256 2.39856 10.4716 2.39856 11.1996 3.13956C11.9276 3.88056 11.9016 5.06356 11.1736 5.79156L10.8226 6.12956C10.7056 6.24656 10.6666 6.41556 10.7316 6.55856C10.8876 7.00056 10.9656 7.46856 10.9786 7.93656C10.9916 8.30056 11.4336 8.46956 11.6936 8.20956L12.6556 7.24756C14.2026 5.70056 14.2026 3.20456 12.6556 1.65756Z" fill="white"/>
</svg>
