<svg width="14" height="12" viewBox="0 0 14 12" fill="none" xmlns="http://www.w3.org/2000/svg">
<path d="M12.0574 3.31615C12.0658 3.42938 12.0658 3.5468 12.0658 3.66002C12.0658 7.14905 9.41129 11.1707 4.55516 11.1749C3.05806 11.1749 1.67 10.7429 0.5 9.98808C0.713871 10.0132 0.915161 10.0216 1.13742 10.0216C2.37032 10.0216 3.50677 9.60647 4.41677 8.89357C3.25516 8.86841 2.28226 8.10938 1.94677 7.06099C2.11032 7.08615 2.27387 7.10292 2.44581 7.10292C2.68484 7.10292 2.91968 7.06938 3.14194 7.01067C1.93419 6.76744 1.02419 5.70228 1.02419 4.41905V4.3897C1.37645 4.5868 1.78323 4.70841 2.21516 4.72518C1.50226 4.25131 1.03677 3.44196 1.04097 2.52357C1.04097 2.03292 1.17097 1.58422 1.39742 1.19002C2.69742 2.79196 4.65161 3.84034 6.84484 3.95357C6.8029 3.75647 6.77774 3.55099 6.77774 3.3497C6.77774 1.89454 7.95613 0.707764 9.41968 0.707764C10.1787 0.707764 10.8665 1.02647 11.3487 1.54228C11.9442 1.42905 12.5187 1.2068 13.0219 0.90486C12.8248 1.51712 12.4097 2.03292 11.8603 2.36002C12.3929 2.30131 12.9087 2.15454 13.3826 1.95325C13.0219 2.47744 12.5732 2.94292 12.0574 3.31615Z" fill="white"/>
</svg>
