<svg width="14" height="17" viewBox="0 0 14 17" fill="none" xmlns="http://www.w3.org/2000/svg">
<path d="M7 16.5C8.10457 16.5 9 15.6046 9 14.5H5C5 15.6046 5.89543 16.5 7 16.5Z" fill="#A0AEC0"/>
<path fill-rule="evenodd" clip-rule="evenodd" d="M7 2.41825L6.20281 2.57925C4.37552 2.94829 3.00002 4.56463 3.00002 6.5C3.00002 7.12782 2.86566 8.69725 2.54116 10.2422C2.38006 11.0091 2.16454 11.8076 1.87809 12.5H12.1219C11.8355 11.8076 11.62 11.0091 11.4589 10.2422C11.1344 8.69724 11 7.12782 11 6.5C11 4.56462 9.6245 2.94827 7.7972 2.57924L7 2.41825ZM13.2193 12.5C13.4426 12.9474 13.7015 13.301 14 13.5H0C0.298527 13.301 0.557447 12.9474 0.7807 12.5C1.67922 10.6994 2.00002 7.37916 2.00002 6.5C2.00002 4.07934 3.7202 2.06045 6.00484 1.59904C6.00164 1.56646 6 1.53342 6 1.5C6 0.947715 6.44772 0.5 7 0.5C7.55228 0.5 8 0.947715 8 1.5C8 1.53342 7.99836 1.56646 7.99516 1.59903C10.2798 2.06042 12 4.07932 12 6.5C12 7.37916 12.3208 10.6994 13.2193 12.5Z" fill="#A0AEC0"/>
</svg>
