<svg width="16" height="16" viewBox="0 0 16 16" fill="none" xmlns="http://www.w3.org/2000/svg">
<g clip-path="url(#clip0)">
<path d="M14.857 6.25704L8.19033 0.145913C7.97311 -0.0528054 7.63905 -0.0479617 7.42792 0.156851L1.13161 6.26794C1.02383 6.37257 0.962891 6.51648 0.962891 6.66663V15.4444C0.962891 15.7513 1.21158 16 1.51845 16H6.14808C6.45492 16 6.70364 15.7513 6.70364 15.4444V11.3704H9.29623V15.4444C9.29623 15.7513 9.54492 16 9.8518 16H14.4814C14.7883 16 15.037 15.7514 15.037 15.4444V6.66666C15.037 6.51091 14.9718 6.36241 14.857 6.25704ZM13.9259 14.8889H10.4074V10.8148C10.4074 10.508 10.1586 10.2593 9.8518 10.2593H6.14811C5.84127 10.2593 5.59255 10.508 5.59255 10.8148V14.8889H2.07402V6.90166L7.8257 1.31926L13.9259 6.9111V14.8889H13.9259Z" fill="#A0AEC0"/>
</g>
<defs>
<clipPath id="clip0">
<rect width="16" height="16" fill="white"/>
</clipPath>
</defs>
</svg>
