<svg width="18" height="18" viewBox="0 0 18 18" fill="none" xmlns="http://www.w3.org/2000/svg">
<path fill-rule="evenodd" clip-rule="evenodd" d="M15.1359 3.08188H2.36401C1.77619 3.08188 1.29968 3.55839 1.29968 4.1462V13.7252L4.11637 11.2202C4.29574 11.0408 4.57678 11.013 4.78785 11.1537L7.61784 13.0404L11.5667 9.09156C11.7286 8.92959 11.9761 8.88943 12.1809 8.99187L16.2003 11.0643V4.1462C16.2003 3.55839 15.7237 3.08188 15.1359 3.08188ZM2.36401 2.01755C1.18838 2.01755 0.235352 2.97058 0.235352 4.1462V14.7895C0.235352 15.9651 1.18838 16.9181 2.36401 16.9181H15.1359C16.3116 16.9181 17.2646 15.9651 17.2646 14.7895V4.1462C17.2646 2.97058 16.3116 2.01755 15.1359 2.01755H2.36401ZM6.62132 6.80702C6.62132 7.68874 5.90654 8.40351 5.02483 8.40351C4.14311 8.40351 3.42833 7.68874 3.42833 6.80702C3.42833 5.9253 4.14311 5.21053 5.02483 5.21053C5.90654 5.21053 6.62132 5.9253 6.62132 6.80702Z" fill="#4A5568"/>
</svg>
