<svg width="206" height="38" viewBox="0 0 206 38" fill="none" xmlns="http://www.w3.org/2000/svg">
<path d="M0 12C0 6.47715 4.47715 2 10 2H24C29.5228 2 34 6.47715 34 12V26C34 31.5228 29.5228 36 24 36H10C4.47715 36 0 31.5228 0 26V12Z" fill="url(#paint0_linear)"/>
<path fill-rule="evenodd" clip-rule="evenodd" d="M19.6916 25.4952C19.6916 26.2372 20.654 26.5286 21.0656 25.9112L26.092 18.3716C26.4243 17.8732 26.067 17.2056 25.468 17.2056H21.486V12.5049C21.486 11.7629 20.5236 11.4715 20.112 12.0889L15.0856 19.6285C14.7533 20.1269 15.1106 20.7945 15.7096 20.7945H19.6916V25.4952Z" fill="white"/>
<path opacity="0.3" fill-rule="evenodd" clip-rule="evenodd" d="M8.92496 14.0653C8.92496 13.322 9.52751 12.7195 10.2708 12.7195H14.7569C15.5002 12.7195 16.1027 13.322 16.1027 14.0653C16.1027 14.8086 15.5002 15.4111 14.7569 15.4111H10.2708C9.5275 15.4111 8.92496 14.8086 8.92496 14.0653ZM8.92496 24.832C8.92496 24.0887 9.52751 23.4861 10.2708 23.4861H14.7569C15.5002 23.4861 16.1027 24.0887 16.1027 24.832C16.1027 25.5753 15.5002 26.1778 14.7569 26.1778H10.2708C9.5275 26.1778 8.92496 25.5753 8.92496 24.832ZM8.47633 18.1028C7.73304 18.1028 7.13049 18.7054 7.13049 19.4486C7.13049 20.1919 7.73304 20.7945 8.47632 20.7945H12.0652C12.8085 20.7945 13.411 20.1919 13.411 19.4486C13.411 18.7054 12.8085 18.1028 12.0652 18.1028H8.47633Z" fill="white"/>
<path d="M62.7372 15.7656C62.1705 11.0625 58.6108 8.35795 53.8977 8.35795C48.5185 8.35795 44.4119 12.1562 44.4119 18.8182C44.4119 25.4602 48.4489 29.2784 53.8977 29.2784C59.1179 29.2784 62.2699 25.8082 62.7372 22.0597L58.3821 22.0398C57.9744 24.2173 56.2642 25.4702 53.9673 25.4702C50.875 25.4702 48.777 23.1733 48.777 18.8182C48.777 14.5824 50.8452 12.1662 53.9972 12.1662C56.3537 12.1662 58.054 13.5284 58.3821 15.7656H62.7372ZM69.9808 8.63636H65.745V29H69.9808V8.63636ZM80.2745 29.2983C84.908 29.2983 87.7915 26.1264 87.7915 21.4233C87.7915 16.6903 84.908 13.5284 80.2745 13.5284C75.641 13.5284 72.7575 16.6903 72.7575 21.4233C72.7575 26.1264 75.641 29.2983 80.2745 29.2983ZM80.2944 26.017C78.1566 26.017 77.0629 24.0582 77.0629 21.3935C77.0629 18.7287 78.1566 16.7599 80.2944 16.7599C82.3924 16.7599 83.4862 18.7287 83.4862 21.3935C83.4862 24.0582 82.3924 26.017 80.2944 26.017ZM100.34 22.4972C100.35 24.5455 98.9478 25.6193 97.4265 25.6193C95.8256 25.6193 94.7915 24.4957 94.7816 22.696V13.7273H90.5458V23.4517C90.5558 27.0213 92.6438 29.1989 95.7163 29.1989C98.0131 29.1989 99.6637 28.0156 100.35 26.2259H100.509V29H104.576V13.7273H100.34V22.4972ZM113.592 29.2486C116.058 29.2486 117.34 27.8267 117.927 26.554H118.106V29H122.282V8.63636H118.056V16.2926H117.927C117.36 15.0497 116.137 13.5284 113.582 13.5284C110.231 13.5284 107.397 16.1335 107.397 21.3835C107.397 26.4943 110.112 29.2486 113.592 29.2486ZM114.934 25.8778C112.856 25.8778 111.722 24.0284 111.722 21.3636C111.722 18.7188 112.836 16.8991 114.934 16.8991C116.992 16.8991 118.146 18.6392 118.146 21.3636C118.146 24.0881 116.972 25.8778 114.934 25.8778ZM131.549 12.1861H137.783V29H142.039V12.1861H148.273V8.63636H131.549V12.1861ZM155.634 29.2983C160.267 29.2983 163.151 26.1264 163.151 21.4233C163.151 16.6903 160.267 13.5284 155.634 13.5284C151 13.5284 148.117 16.6903 148.117 21.4233C148.117 26.1264 151 29.2983 155.634 29.2983ZM155.654 26.017C153.516 26.017 152.422 24.0582 152.422 21.3935C152.422 18.7287 153.516 16.7599 155.654 16.7599C157.752 16.7599 158.846 18.7287 158.846 21.3935C158.846 24.0582 157.752 26.017 155.654 26.017ZM168.535 29H173.01L175.635 19.3949H175.824L178.449 29H182.933L187.079 13.7273H182.804L180.477 23.929H180.348L177.842 13.7273H173.636L171.17 23.9886H171.031L168.664 13.7273H164.379L168.535 29ZM193.575 20.1705C193.585 18.2017 194.758 17.0483 196.468 17.0483C198.168 17.0483 199.192 18.1619 199.183 20.0312V29H203.418V19.2756C203.418 15.7159 201.33 13.5284 198.148 13.5284C195.881 13.5284 194.241 14.642 193.555 16.4219H193.376V13.7273H189.339V29H193.575V20.1705Z" fill="url(#paint1_linear)"/>
<defs>
<linearGradient id="paint0_linear" x1="34" y1="2" x2="0" y2="36" gradientUnits="userSpaceOnUse">
<stop stop-color="#D665FF"/>
<stop offset="1" stop-color="#4C6FFF"/>
</linearGradient>
<linearGradient id="paint1_linear" x1="206" y1="0" x2="189.196" y2="72.0824" gradientUnits="userSpaceOnUse">
<stop stop-color="#D665FF"/>
<stop offset="1" stop-color="#4C6FFF"/>
</linearGradient>
</defs>
</svg>
