<svg width="16" height="16" viewBox="0 0 16 16" fill="none" xmlns="http://www.w3.org/2000/svg">
<path d="M7.95898 8H14.459" stroke="#A0AEC0" stroke-width="2" stroke-linecap="round" stroke-linejoin="round"/>
<path d="M11.9648 12.5V14H3.96484V2H11.9648V3.5H12.9648V1.5C12.9648 1.36739 12.9122 1.24021 12.8184 1.14645C12.7246 1.05268 12.5975 1 12.4648 1H3.46484C3.33224 1 3.20506 1.05268 3.11129 1.14645C3.01752 1.24021 2.96484 1.36739 2.96484 1.5V14.5C2.96484 14.6326 3.01752 14.7598 3.11129 14.8536C3.20506 14.9473 3.33224 15 3.46484 15H12.4648C12.5975 15 12.7246 14.9473 12.8184 14.8536C12.9122 14.7598 12.9648 14.6326 12.9648 14.5V12.5H11.9648Z" fill="#A0AEC0"/>
<path d="M14.459 8L12.459 10" stroke="#A0AEC0" stroke-width="2" stroke-linecap="round" stroke-linejoin="round"/>
<path d="M14.459 8L12.459 6" stroke="#A0AEC0" stroke-width="2" stroke-linecap="round" stroke-linejoin="round"/>
</svg>
