<svg width="16" height="16" viewBox="0 0 16 16" fill="none" xmlns="http://www.w3.org/2000/svg">
<g clip-path="url(#clip0)">
<path d="M12.9714 7.81785C14.6112 6.34367 14.7455 3.8193 13.2713 2.17948C11.9193 0.675506 9.65618 0.420005 8.00284 1.58471C6.20051 0.312728 3.70831 0.74267 2.43633 2.54497C1.26918 4.19875 1.52364 6.46417 3.02859 7.81781C1.15866 8.80352 -0.00842514 10.7469 4.58028e-05 12.8606V14.5749C4.58028e-05 14.8905 0.255882 15.1464 0.571483 15.1464H15.4285C15.7441 15.1464 16 14.8905 16 14.5749V12.8606C16.0084 10.7469 14.8413 8.80352 12.9714 7.81785ZM10.2857 2.00357C11.8614 2.00183 13.1402 3.27779 13.142 4.85352C13.1432 5.97731 12.4847 6.99714 11.46 7.45839C11.416 7.47837 11.372 7.49666 11.3274 7.51554C11.1864 7.57243 11.0409 7.61769 10.8925 7.65097C10.864 7.65727 10.8354 7.66068 10.8063 7.66641C10.6405 7.69818 10.4722 7.71519 10.3034 7.71727C10.2274 7.71727 10.1508 7.71154 10.0748 7.70471C10.0462 7.70471 10.0177 7.70471 9.98909 7.69899C9.66432 7.66075 9.34838 7.56764 9.05481 7.42356C9.04396 7.41841 9.03138 7.41898 9.02053 7.41442C8.96337 7.387 8.90625 7.363 8.85539 7.33213C8.85998 7.3264 8.86283 7.32014 8.86738 7.31441C9.12941 6.97772 9.33599 6.60138 9.47936 6.19956L9.49708 6.15155C9.56227 5.95963 9.61289 5.76309 9.64851 5.56354C9.65367 5.53441 9.65766 5.50639 9.66224 5.47498C9.69529 5.27185 9.71267 5.0665 9.71424 4.86069C9.7126 4.65527 9.69522 4.4503 9.66224 4.24753C9.65766 4.21783 9.65367 4.19038 9.64851 4.15897C9.61289 3.95945 9.56227 3.76288 9.49708 3.57096L9.47936 3.52295C9.33599 3.12113 9.12938 2.74479 8.86738 2.4081C8.86279 2.40237 8.85995 2.39611 8.85539 2.39039C9.28952 2.13713 9.78308 2.0036 10.2857 2.00357ZM2.85716 4.86072C2.85311 3.28687 4.12566 2.00772 5.69952 2.00367C6.43726 2.00176 7.14701 2.28606 7.67944 2.79672C7.71259 2.82873 7.74517 2.86071 7.77714 2.89385C7.87528 2.99668 7.96578 3.1065 8.04801 3.22241C8.07315 3.25784 8.09602 3.29557 8.11943 3.33213C8.19928 3.45505 8.26939 3.58402 8.32912 3.71785C8.34342 3.75042 8.35427 3.78357 8.36683 3.81612C8.42706 3.96414 8.47447 4.11708 8.50855 4.27324C8.51257 4.29039 8.51371 4.30753 8.51713 4.32524C8.58951 4.68005 8.58951 5.04584 8.51713 5.40065C8.51371 5.41836 8.51254 5.4355 8.50855 5.45265C8.4745 5.60881 8.42709 5.76175 8.36683 5.90978C8.35427 5.94236 8.34339 5.9755 8.32912 6.00805C8.26933 6.14167 8.19921 6.27045 8.11943 6.39319C8.09599 6.42975 8.07315 6.46749 8.04801 6.50291C7.96581 6.61886 7.87528 6.72865 7.77714 6.83147C7.74513 6.86462 7.71255 6.89663 7.67944 6.9286C7.44808 7.14908 7.18133 7.32911 6.8903 7.46116C6.84403 7.48229 6.79716 7.50175 6.74975 7.51832C6.612 7.57299 6.47027 7.61692 6.32576 7.64974C6.28977 7.65774 6.25261 7.66229 6.21604 7.66859C6.06089 7.69748 5.90356 7.71332 5.74576 7.71603H5.68291C5.52511 7.71335 5.36778 7.69748 5.21262 7.66859C5.17606 7.66229 5.13889 7.65774 5.1029 7.64974C4.95839 7.61692 4.81663 7.57299 4.67892 7.51832C4.63147 7.49947 4.58463 7.48005 4.53836 7.46116C3.51602 6.99958 2.85847 5.9824 2.85716 4.86072ZM10.2857 14.0035H1.14289V12.8607C1.13452 10.9243 2.35453 9.19546 4.18171 8.55442C5.1626 8.9628 6.26593 8.9628 7.24685 8.55442C7.43763 8.62413 7.62356 8.70639 7.80342 8.80071C7.92228 8.86185 8.03201 8.93156 8.14628 9.00184C8.22058 9.04811 8.29598 9.09328 8.36743 9.14414C8.47772 9.22242 8.58171 9.30756 8.684 9.39498C8.74972 9.45214 8.81485 9.50926 8.87655 9.56641C8.97084 9.65554 9.0594 9.74983 9.14454 9.84642C9.20568 9.91613 9.26511 9.98698 9.3217 10.0601C9.39656 10.1561 9.46798 10.2544 9.53427 10.3555C9.59143 10.4413 9.64229 10.5304 9.69254 10.6196C9.7497 10.7178 9.80226 10.8161 9.85024 10.9184C9.89826 11.0207 9.94054 11.1327 9.98166 11.2419C10.0177 11.3367 10.056 11.431 10.0857 11.5276C10.1257 11.6601 10.1537 11.7972 10.1816 11.9344C10.1988 12.0155 10.2211 12.095 10.2336 12.1772C10.2675 12.4035 10.2849 12.6319 10.2856 12.8607V14.0035H10.2857ZM14.8571 14.0035H11.4286V12.8607C11.4286 12.6818 11.4183 12.5047 11.4023 12.3292C11.3977 12.2778 11.3897 12.227 11.384 12.1755C11.3686 12.0492 11.3508 11.9241 11.3268 11.8001C11.3166 11.7472 11.3057 11.694 11.2943 11.6407C11.2668 11.5134 11.235 11.3873 11.1988 11.2624C11.1868 11.2212 11.176 11.1795 11.1634 11.139C11.0034 10.6275 10.7715 10.1413 10.4749 9.69498L10.4526 9.6624C10.3543 9.51649 10.2493 9.37536 10.1377 9.23899L10.1337 9.23383C10.0194 9.09214 9.89541 8.95439 9.76513 8.82412C9.77257 8.82412 9.78057 8.82412 9.78857 8.82412C9.94982 8.84531 10.1122 8.85676 10.2749 8.8584H10.3063C10.4568 8.8571 10.6071 8.84735 10.7566 8.82927C10.8034 8.82355 10.8497 8.81498 10.8966 8.80754C11.0181 8.78889 11.1381 8.76469 11.2566 8.73499C11.2903 8.72642 11.3246 8.71841 11.3589 8.7087C11.5143 8.66642 11.667 8.61449 11.816 8.55328C13.6445 9.19369 14.8656 10.9233 14.8571 12.8607V14.0035H14.8571Z" fill="#A0AEC0"/>
</g>
<defs>
<clipPath id="clip0">
<rect width="16" height="16" fill="white"/>
</clipPath>
</defs>
</svg>
