<svg width="17" height="16" viewBox="0 0 14 13" fill="none" xmlns="http://www.w3.org/2000/svg">
<path d="M7 0C5.10995 0 3.57227 1.53768 3.57227 3.42773C3.57227 5.31779 5.10995 6.85547 7 6.85547C8.89005 6.85547 10.4277 5.31779 10.4277 3.42773C10.4277 1.53768 8.89005 0 7 0ZM7 6.09375C5.52996 6.09375 4.33398 4.89778 4.33398 3.42773C4.33398 1.95769 5.52996 0.761719 7 0.761719C8.47004 0.761719 9.66602 1.95769 9.66602 3.42773C9.66602 4.89778 8.47004 6.09375 7 6.09375Z" fill="#A0AEC0"/>
<path d="M11.2648 9.0948C10.3263 8.14194 9.08226 7.61719 7.76172 7.61719H6.23828C4.91777 7.61719 3.67368 8.14194 2.73524 9.0948C1.8014 10.043 1.28711 11.2946 1.28711 12.6191C1.28711 12.8295 1.45763 13 1.66797 13H12.332C12.5424 13 12.7129 12.8295 12.7129 12.6191C12.7129 11.2946 12.1986 10.043 11.2648 9.0948ZM2.06559 12.2383C2.2564 10.0779 4.05497 8.37891 6.23828 8.37891H7.76172C9.94503 8.37891 11.7436 10.0779 11.9344 12.2383H2.06559Z" fill="#A0AEC0"/>
</svg>
